<svg width="25" height="23" viewBox="0 0 25 23" fill="none" xmlns="http://www.w3.org/2000/svg">
<mask id="mask0_2_65" style="mask-type:alpha" maskUnits="userSpaceOnUse" x="0" y="0" width="25" height="23">
<g clip-path="url(#clip0_2_65)">
<path d="M19.275 14.2479C18.8006 13.7576 18.2283 13.4955 17.6217 13.4955C17.0201 13.4955 16.4429 13.7527 15.9489 14.243L14.4032 15.7721C14.276 15.7042 14.1488 15.6411 14.0266 15.578C13.8505 15.4906 13.6842 15.4081 13.5423 15.3207C12.0945 14.4081 10.7787 13.2188 9.5167 11.6799C8.90527 10.913 8.4944 10.2673 8.19602 9.61201C8.59712 9.24794 8.96886 8.86931 9.33082 8.50523C9.46778 8.36931 9.60474 8.22854 9.7417 8.09262C10.7689 7.07321 10.7689 5.75284 9.7417 4.73344L8.40635 3.40821C8.25472 3.25773 8.09819 3.10239 7.95145 2.94705C7.65797 2.64608 7.34981 2.33541 7.03187 2.04415C6.55741 1.57814 5.99001 1.33057 5.39326 1.33057C4.79651 1.33057 4.21932 1.57814 3.73018 2.04415C3.72529 2.049 3.72529 2.049 3.7204 2.05386L2.05733 3.71889C1.43123 4.34024 1.07416 5.09751 0.995896 5.97614C0.878503 7.3936 1.29916 8.71397 1.62199 9.57803C2.4144 11.6994 3.59812 13.6654 5.36391 15.7721C7.50634 18.3109 10.0841 20.3158 13.0287 21.7284C14.1537 22.2575 15.6554 22.8837 17.3331 22.9905C17.4359 22.9953 17.5435 23.0002 17.6413 23.0002C18.7712 23.0002 19.7201 22.5973 20.4636 21.7963C20.4685 21.7866 20.4783 21.7818 20.4832 21.7721C20.7375 21.4662 21.031 21.1895 21.3392 20.8934C21.5495 20.6944 21.7647 20.4857 21.9751 20.2672C22.4593 19.7672 22.7137 19.1847 22.7137 18.5876C22.7137 17.9857 22.4544 17.408 21.9604 16.9226L19.275 14.2479ZM21.0261 19.3595C21.0212 19.3595 21.0212 19.3643 21.0261 19.3595C20.8354 19.5633 20.6397 19.7478 20.4294 19.9517C20.1114 20.2527 19.7886 20.5682 19.4853 20.9226C18.9913 21.4468 18.4092 21.6944 17.6462 21.6944C17.5728 21.6944 17.4946 21.6944 17.4212 21.6895C15.9684 21.5973 14.6184 21.0342 13.6059 20.5536C10.8374 19.2235 8.40635 17.3352 6.38621 14.942C4.71824 12.9469 3.60301 11.1023 2.86441 9.12173C2.40951 7.91301 2.2432 6.97127 2.31657 6.08293C2.36549 5.51498 2.5856 5.04411 2.99158 4.6412L4.65955 2.98589C4.89922 2.76259 5.15358 2.64123 5.40304 2.64123C5.7112 2.64123 5.96066 2.82569 6.11718 2.98103C6.12207 2.98589 6.12696 2.99074 6.13186 2.99559C6.43023 3.27229 6.71393 3.55869 7.01231 3.86452C7.16394 4.01985 7.32046 4.17519 7.47699 4.33538L8.81234 5.66061C9.33082 6.17517 9.33082 6.65089 8.81234 7.16544C8.67049 7.30622 8.53353 7.44699 8.39168 7.58291C7.9808 8.00038 7.58949 8.38873 7.16394 8.76736C7.15416 8.77707 7.14437 8.78193 7.13948 8.79164C6.71882 9.20911 6.79708 9.61687 6.88513 9.89356C6.89002 9.90813 6.89491 9.92269 6.8998 9.93725C7.24709 10.7722 7.73623 11.5586 8.47972 12.4955L8.48461 12.5003C9.83464 14.1508 11.258 15.4372 12.8282 16.4226C13.0287 16.5488 13.2342 16.6508 13.4298 16.7478C13.6059 16.8352 13.7722 16.9177 13.9141 17.0051C13.9336 17.0148 13.9532 17.0294 13.9728 17.0391C14.1391 17.1216 14.2956 17.1605 14.457 17.1605C14.863 17.1605 15.1173 16.908 15.2005 16.8255L16.8733 15.1653C17.0397 15.0003 17.3038 14.8013 17.6119 14.8013C17.9152 14.8013 18.1647 14.9906 18.3163 15.1556C18.3212 15.1605 18.3212 15.1605 18.3261 15.1653L21.0212 17.8401C21.5251 18.3352 21.5251 18.8449 21.0261 19.3595Z" fill="black"/>
<path d="M13.4837 5.47092C14.7653 5.68451 15.9294 6.28644 16.8588 7.20876C17.7882 8.13108 18.3898 9.2864 18.6099 10.5582C18.6637 10.8786 18.9425 11.1019 19.2605 11.1019C19.2996 11.1019 19.3338 11.0971 19.373 11.0922C19.7349 11.034 19.9746 10.6942 19.9159 10.3349C19.6518 8.79612 18.9181 7.39322 17.7979 6.28159C16.6778 5.16995 15.2642 4.4418 13.7136 4.17967C13.3517 4.12142 13.0142 4.35928 12.9506 4.71365C12.887 5.06801 13.1218 5.41267 13.4837 5.47092Z" fill="black"/>
<path d="M24.1078 10.1458C23.6725 7.61184 22.4692 5.30604 20.6203 3.47111C18.7713 1.63618 16.4479 0.442024 13.8946 0.00999088C13.5375 -0.0531151 13.2 0.1896 13.1364 0.543965C13.0777 0.903184 13.3174 1.23813 13.6794 1.30124C15.9588 1.68473 18.0376 2.75753 19.6909 4.39343C21.3442 6.03419 22.4203 8.09727 22.8067 10.3594C22.8605 10.6798 23.1393 10.9031 23.4573 10.9031C23.4964 10.9031 23.5306 10.8982 23.5698 10.8933C23.9268 10.84 24.1714 10.5002 24.1078 10.1458Z" fill="black"/>
</g>
</mask>
<g mask="url(#mask0_2_65)">
<rect x="-8.17079" y="-81.5454" width="131.329" height="120.576" fill="white"/>
</g>
<defs>
<clipPath id="clip0_2_65">
<rect width="23.1757" height="23" fill="white" transform="translate(0.959045)"/>
</clipPath>
</defs>
</svg>
